<svg xmlns="http://www.w3.org/2000/svg" width="315" height="355" viewBox="0 0 315 355" fill="none"><g clip-path="url(#clip0_6632_8094)"><g opacity="0.1"><path d="M7 497V284.18C7 268.906 13.9814 254.47 25.9544 244.986L488 -121" stroke="white"></path><path d="M34 510V297.18C34 281.906 40.9814 267.47 52.9544 257.986L515 -108" stroke="white"></path><path d="M61 523V310.18C61 294.906 67.9814 280.47 79.9544 270.986L542 -95" stroke="white"></path><path d="M88 536V323.18C88 307.906 94.9814 293.47 106.954 283.986L569 -82" stroke="white"></path><path d="M115 549V336.18C115 320.906 121.981 306.47 133.954 296.986L596 -69" stroke="white"></path><path d="M142 562V349.18C142 333.906 148.981 319.47 160.954 309.986L623 -56" stroke="white"></path></g></g><defs><clipPath id="clip0_6632_8094"><rect width="315" height="355" fill="white"></rect></clipPath></defs></svg>