<svg xmlns="http://www.w3.org/2000/svg" width="420" height="475" viewBox="0 0 420 475" fill="none"><g clip-path="url(#clip0_6632_8093)"><g opacity="0.1"><path d="M-87.7109 -86L65.1261 66.8371C74.5029 76.2139 79.7708 88.9316 79.7708 102.192V329.996C79.7708 357.61 102.157 379.996 129.771 379.996H292.981C306.242 379.996 318.959 385.264 328.336 394.641L537 603.305" stroke="white"></path><path d="M-106.168 -66.6221L46.6691 86.215C56.0459 95.5918 61.3137 108.31 61.3137 121.57V349.374C61.3137 376.988 83.6995 399.374 111.314 399.374H274.524C287.785 399.374 300.502 404.642 309.879 414.019L518.543 622.683" stroke="white"></path><path d="M-126.469 -46.3208L26.3683 106.516C35.7451 115.893 41.0129 128.611 41.0129 141.872V369.675C41.0129 397.289 63.3987 419.675 91.0129 419.675H254.223C267.484 419.675 280.202 424.943 289.578 434.32L498.243 642.984" stroke="white"></path><path d="M-149 -34L6.31327 121.19C15.6987 130.568 20.9719 143.292 20.9719 156.56V388.55C20.9719 416.164 43.3577 438.55 70.9719 438.55H237.672C250.926 438.55 263.637 443.813 273.013 453.181L485 665" stroke="white"></path></g></g><defs><clipPath id="clip0_6632_8093"><rect width="420" height="475" fill="white"></rect></clipPath></defs></svg>